<?xml version="1.0" standalone="no"?>
<!DOCTYPE svg PUBLIC "-//W3C//DTD SVG 20010904//EN"
        "http://www.w3.org/TR/2001/REC-SVG-20010904/DTD/svg10.dtd">
<svg version="1.0" xmlns="http://www.w3.org/2000/svg"
     width="1000.000000pt" height="1000.000000pt" viewBox="0 0 1000.000000 1000.000000"
     preserveAspectRatio="xMidYMid meet">
    <metadata>
        Created by potrace 1.11, written by Peter Selinger 2001-2013
    </metadata>
    <g transform="translate(0.000000,1000.000000) scale(0.100000,-0.100000)"
       fill="#000000" stroke="none">
        <path d="M0 8683 l0 -1318 1315 1315 c723 723 1315 1316 1315 1317 0 2 -592 3
-1315 3 l-1315 0 0 -1317z"/>
        <path d="M3620 9995 c0 -3 1011 -1016 2248 -2251 1236 -1234 2266 -2268 2290
-2297 51 -61 117 -189 137 -267 45 -166 26 -330 -56 -500 l-51 -105 -2286
-2287 -2287 -2288 3193 0 3192 0 0 5000 0 5000 -3190 0 c-1754 0 -3190 -2
-3190 -5z m5282 -716 l47 -11 3 -56 3 -55 65 -18 c36 -10 68 -18 73 -19 4 0 7
25 7 55 0 30 3 55 7 55 4 0 33 -7 65 -16 l58 -17 0 -57 0 -58 118 -29 117 -29
3 -67 c2 -37 -1 -67 -5 -67 -7 0 -176 44 -215 56 -16 5 -18 -2 -18 -53 l0 -58
118 -30 117 -30 3 -54 c5 -84 8 -83 -120 -50 -62 16 -114 29 -115 29 -2 0 -3
-24 -3 -54 l0 -54 -62 17 -63 18 -3 55 -3 56 -64 16 c-35 9 -69 16 -75 16 -6
0 -10 -23 -10 -54 l0 -53 -65 15 -65 16 0 57 c0 64 4 61 -110 89 -25 6 -62 16
-82 21 l-38 10 0 64 c0 46 4 65 13 65 6 0 53 -11 102 -25 50 -14 96 -25 103
-25 8 0 12 17 12 54 l0 54 -77 20 c-43 12 -94 25 -113 30 l-35 8 -3 67 c-2 37
1 67 5 67 4 0 56 -13 116 -29 l107 -29 0 55 c0 47 2 54 18 49 9 -3 38 -10 64
-17z m568 -886 l-1 -118 -140 -93 -140 -93 140 -92 141 -92 0 -119 c0 -93 -3
-117 -13 -113 -7 3 -117 75 -244 161 l-232 156 -195 0 -196 0 0 100 0 100 195
0 196 0 237 160 c130 88 240 160 245 160 4 0 7 -53 7 -117z m-2 -1013 l2 -250
-90 0 -90 0 0 150 0 150 -85 0 -85 0 0 -145 0 -145 -90 0 -90 0 0 145 0 145
-85 0 -85 0 0 -150 0 -150 -90 0 -90 0 0 253 0 252 437 -2 438 -3 3 -250z
m-283 -350 c106 -36 203 -118 250 -210 80 -156 48 -386 -71 -501 l-33 -32 -59
51 c-90 78 -88 72 -38 124 133 139 50 336 -156 370 -118 20 -230 -24 -291
-114 -26 -39 -28 -49 -25 -114 2 -55 9 -79 28 -106 28 -42 68 -68 104 -68 l26
0 0 100 0 101 76 -3 77 -3 1 -203 1 -204 -115 4 c-101 3 -122 6 -171 30 -203
100 -282 381 -163 584 59 100 195 192 314 213 72 13 177 4 245 -19z m-59 -874
c229 -61 382 -303 345 -544 -13 -82 -45 -174 -67 -193 -13 -10 -29 -6 -95 26
-43 22 -77 44 -75 50 29 66 48 153 43 200 -7 64 -38 139 -75 179 -60 64 -171
92 -253 64 -110 -37 -170 -123 -177 -254 -4 -72 -1 -89 21 -138 l26 -56 -79
-40 c-44 -22 -84 -40 -89 -40 -13 0 -57 98 -70 158 -15 74 -14 177 4 247 65
247 311 402 541 341z m-180 -801 c70 -21 127 -73 166 -153 30 -61 33 -74 33
-162 0 -88 -3 -101 -33 -162 -39 -80 -96 -132 -166 -153 -140 -42 -277 19
-343 153 -25 51 -28 67 -28 162 0 130 22 187 97 255 78 70 172 91 274 60z
m189 -827 l0 -93 -34 -5 -33 -5 22 -20 c31 -27 60 -92 60 -135 0 -48 -18 -110
-35 -116 -7 -3 -45 11 -85 31 -58 29 -70 39 -64 53 11 25 17 99 10 128 -4 13
-21 33 -39 44 -28 18 -51 20 -189 20 l-158 0 0 98 0 97 272 -2 273 -3 0 -92z
m-157 -424 c95 -47 153 -140 160 -255 10 -172 -84 -292 -240 -306 l-58 -6 0
197 0 196 -25 0 c-14 0 -39 -13 -57 -29 -30 -27 -33 -34 -33 -89 1 -49 5 -66
28 -95 l27 -36 -32 -66 c-18 -36 -35 -65 -38 -65 -20 0 -83 69 -106 116 -72
147 -26 342 98 420 56 35 80 42 159 43 51 1 76 -4 117 -25z m-33 -827 l340
-213 3 185 2 186 88 -2 87 -1 3 -361 c1 -199 0 -361 -2 -361 -3 0 -159 96
-348 214 l-343 214 -3 -199 -2 -199 -90 0 -90 0 0 375 c0 206 3 375 8 375 4
-1 160 -97 347 -213z m40 -638 c58 -29 100 -76 134 -149 23 -48 26 -68 26
-155 -1 -119 -21 -172 -96 -247 -100 -100 -263 -103 -372 -8 -26 23 -58 66
-74 98 -25 51 -28 67 -28 162 0 95 3 111 28 162 34 69 103 133 166 153 63 20
157 13 216 -16z m153 -811 c-3 -88 -4 -93 -25 -96 -25 -4 -30 -17 -12 -28 20
-12 49 -88 49 -130 0 -60 -27 -140 -61 -179 -48 -54 -100 -65 -316 -65 l-183
0 0 100 0 100 176 0 176 0 29 29 c42 42 40 92 -5 137 l-34 34 -171 0 -171 0 0
95 0 95 275 0 276 0 -3 -92z m-198 -584 c74 -22 152 -97 181 -173 40 -107 16
-253 -54 -329 -33 -36 -106 -69 -170 -77 l-57 -7 0 202 0 203 -32 -7 c-42 -8
-66 -31 -79 -77 -15 -48 -5 -101 28 -139 l25 -31 -33 -64 c-18 -36 -38 -65
-44 -65 -20 0 -84 74 -107 125 -19 41 -23 67 -23 145 0 84 3 101 27 146 50 95
151 161 249 163 19 1 59 -6 89 -15z"/>
        <path d="M8950 8967 l0 -56 58 -16 c31 -9 65 -18 75 -21 15 -5 17 2 17 54 l0
59 -52 12 c-29 6 -63 14 -75 17 -22 6 -23 3 -23 -49z"/>
        <path d="M8813 5159 c-62 -18 -96 -94 -73 -163 36 -109 208 -106 241 5 31 103
-60 189 -168 158z"/>
        <path d="M8940 3830 c0 -108 8 -122 50 -80 41 41 38 125 -7 160 -14 11 -30 20
-34 20 -5 0 -9 -45 -9 -100z"/>
        <path d="M8813 2459 c-90 -27 -109 -165 -31 -221 38 -27 113 -29 151 -4 28 19
57 72 57 106 0 32 -28 87 -54 104 -31 20 -85 27 -123 15z"/>
        <path d="M8940 950 c0 -55 4 -100 9 -100 4 0 20 9 34 20 45 35 48 119 7 160
-42 42 -50 28 -50 -80z"/>
        <path d="M3015 9324 c-27 -9 -63 -25 -80 -36 -16 -12 -684 -674 -1483 -1472
l-1452 -1451 0 -1365 0 -1365 380 -380 c342 -342 379 -376 369 -340 -23 81 -6
140 235 864 130 388 235 706 233 707 -1 1 -137 -99 -302 -223 -165 -123 -315
-231 -333 -238 -135 -57 -280 -28 -378 77 -59 64 -86 126 -92 213 -5 82 19
159 69 222 17 21 288 230 602 466 315 235 578 434 586 442 12 12 5 22 -47 73
-113 112 -179 240 -202 397 -49 325 168 647 495 736 112 30 277 24 385 -15
191 -68 331 -202 404 -388 34 -87 46 -152 46 -253 0 -141 -41 -265 -128 -385
l-40 -55 367 -92 366 -92 538 537 538 538 -48 39 c-250 203 -323 551 -174 831
121 227 337 358 591 358 118 1 180 -14 297 -70 219 -105 358 -316 370 -564 6
-122 -14 -218 -68 -330 -35 -70 -58 -100 -134 -175 l-92 -90 623 -625 c396
-398 629 -640 642 -665 49 -98 47 -221 -6 -318 -81 -150 -273 -215 -427 -144
-52 24 -104 72 -387 355 -181 180 -328 321 -328 315 0 -7 115 -529 256 -1160
287 -1283 280 -1246 226 -1354 -28 -58 43 11 968 937 797 798 1003 1009 1024
1051 50 101 51 218 2 317 -21 41 -424 451 -2058 2088 -2262 2266 -2071 2086
-2225 2094 -54 3 -94 -1 -128 -12z"/>
        <path d="M3645 5050 c-288 -288 -336 -332 -389 -357 -101 -45 -136 -40 -656
90 -250 63 -456 113 -458 112 -1 -1 24 -78 57 -171 32 -93 157 -446 276 -784
317 -897 318 -903 312 -971 -28 -313 -425 -426 -606 -173 -20 27 -91 215 -216
570 -102 291 -191 543 -198 561 -12 31 -20 8 -191 -505 -98 -295 -189 -557
-202 -582 -64 -127 -209 -202 -349 -180 -27 4 -51 7 -52 6 -1 -1 437 -441 975
-978 694 -694 990 -983 1022 -999 34 -17 67 -24 138 -27 91 -4 95 -4 165 31
68 34 127 92 1066 1031 915 915 989 992 933 964 -53 -26 -72 -30 -141 -30 -64
0 -92 5 -134 25 -73 33 -131 87 -162 151 -18 36 -78 288 -199 831 -95 429
-176 773 -179 765 -3 -8 -81 -355 -172 -770 -182 -827 -188 -846 -271 -919
-98 -86 -246 -109 -361 -57 -117 54 -193 171 -193 299 0 44 73 391 259 1227
142 641 258 1166 257 1167 -1 1 -150 -146 -331 -327z"/>
        <path d="M0 1315 l0 -1315 1317 0 1318 0 -1315 1315 c-723 723 -1316 1315
-1317 1315 -2 0 -3 -592 -3 -1315z"/>
    </g>
</svg>
